# xmcd
#
# Track frame offsets:
#	150
#	15739
#	31865
#	44758
#	58278
#	68730
#	81707
#	93479
#	108330
#	121390
#	136296
#
# Disc length: 2014 seconds
#
# Revision: 0
# Processed by: cddbd v1.5.1PL0 Copyright (c) Steve Scherf et al.
# Submitted via: dBpowerAMP V4.0
#
DISCID=9d07dc0b
DTITLE=The Bluesome Twosome - Waiting List Blues (Live at the Fat Cat)
DYEAR=2003
DGENRE=Blues
TTITLE0=Death Letter Blues
TTITLE1=Me And The Devil Blues
TTITLE2=Can't Be Satisfied
TTITLE3=New Jersey Women
TTITLE4=The StumbleMouse Stomp
TTITLE5=Come On In My Kitchen
TTITLE6=Waiting List Blues
TTITLE7=Walking Blues
TTITLE8=Stagolee
TTITLE9=Terraplane Blues
TTITLE10=Please Find My Baby
EXTD=
EXTT0=
EXTT1=
EXTT2=
EXTT3=
EXTT4=
EXTT5=
EXTT6=
EXTT7=
EXTT8=
EXTT9=
EXTT10=
PLAYORDER=
